<?xml version="1.0" encoding="UTF-8" standalone="no"?>
<!-- Uploaded to: SVG Repo, www.svgrepo.com, Generator: SVG Repo Mixer Tools -->

<svg
   fill="#000000"
   height="800px"
   width="800px"
   version="1.1"
   id="Capa_1"
   viewBox="0 0 32.055 32.055"
   xml:space="preserve"
   sodipodi:docname="three-dots-svgrepo-com.svg"
   inkscape:version="1.3.2 (091e20ef0f, 2023-11-25)"
   xmlns:inkscape="http://www.inkscape.org/namespaces/inkscape"
   xmlns:sodipodi="http://sodipodi.sourceforge.net/DTD/sodipodi-0.dtd"
   xmlns="http://www.w3.org/2000/svg"
   xmlns:svg="http://www.w3.org/2000/svg"><defs
   id="defs1" /><sodipodi:namedview
   id="namedview1"
   pagecolor="#ffffff"
   bordercolor="#000000"
   borderopacity="0.25"
   inkscape:showpageshadow="2"
   inkscape:pageopacity="0.0"
   inkscape:pagecheckerboard="0"
   inkscape:deskcolor="#d1d1d1"
   inkscape:zoom="0.74375"
   inkscape:cx="400"
   inkscape:cy="400"
   inkscape:window-width="1536"
   inkscape:window-height="792"
   inkscape:window-x="0"
   inkscape:window-y="0"
   inkscape:window-maximized="1"
   inkscape:current-layer="Capa_1" />
<g
   id="g1">
	<path
   d="M3.968,12.061C1.775,12.061,0,13.835,0,16.027c0,2.192,1.773,3.967,3.968,3.967c2.189,0,3.966-1.772,3.966-3.967   C7.934,13.835,6.157,12.061,3.968,12.061z M16.233,12.061c-2.188,0-3.968,1.773-3.968,3.965c0,2.192,1.778,3.967,3.968,3.967   s3.97-1.772,3.97-3.967C20.201,13.835,18.423,12.061,16.233,12.061z M28.09,12.061c-2.192,0-3.969,1.774-3.969,3.967   c0,2.19,1.774,3.965,3.969,3.965c2.188,0,3.965-1.772,3.965-3.965S30.278,12.061,28.09,12.061z"
   id="path1" />
</g>
<path
   style="fill:#f9f9f9;stroke-width:1.34454"
   d="m 81.445628,496.6894 c -36.93074,-7.24568 -65.588755,-33.24597 -76.9333557,-69.79864 -4.4888682,-14.46328 -4.4888682,-39.31824 0,-53.78152 12.9503857,-41.72655 47.3424467,-68.72229 90.2776437,-70.86262 17.582304,-0.87648 33.046154,2.44476 48.218784,10.35615 24.52141,12.7861 40.35949,31.08668 49.45576,57.14513 3.44277,9.86262 3.75471,12.3761 3.75471,30.2521 0,17.876 -0.31194,20.38948 -3.75471,30.2521 -9.40371,26.93919 -25.59652,45.19985 -51.28799,57.83755 -18.30005,9.00186 -41.01348,12.27202 -59.730842,8.59975 z"
   id="path2"
   transform="scale(0.04006875)" /><path
   style="fill:#f9f9f9;stroke-width:1.34454"
   d="m 384.53782,496.05655 c -19.88385,-4.33359 -41.91563,-17.81738 -54.96777,-33.6411 -29.79419,-36.12089 -29.86902,-88.61929 -0.17762,-124.61556 29.69144,-35.99631 80.13882,-46.10068 121.73319,-24.38257 22.93982,11.97781 40.33154,33.37299 48.5609,59.73931 4.49561,14.40363 4.49561,39.28311 0,53.68674 -10.33596,33.11569 -34.05487,57.0213 -66.74534,67.27075 -12.45039,3.90357 -35.21371,4.81707 -48.40336,1.94243 z"
   id="path3"
   transform="scale(0.04006875)" /><path
   style="fill:#f9f9f9;stroke-width:1.34454"
   d="m 680.33613,496.03973 c -28.15146,-6.18584 -54.62258,-27.00315 -67.38421,-52.99201 -7.77335,-15.83034 -9.26025,-22.89649 -9.19977,-43.71999 0.0495,-17.0352 0.41015,-19.84543 3.79639,-29.57983 9.35725,-26.8992 25.56167,-45.18011 51.27499,-57.84555 54.22648,-26.70997 118.28175,1.97804 136.6642,61.20689 4.49146,14.47164 4.49013,39.33882 -0.003,53.73413 -10.35692,33.18285 -33.98856,57.00052 -66.74534,67.27075 -12.48603,3.91475 -35.23265,4.81966 -48.40337,1.92561 z"
   id="path4"
   transform="scale(0.04006875)" /></svg>
