<?xml version="1.0" encoding="UTF-8" standalone="no"?>
<svg
   version="1.0"
   width="663pt"
   height="474pt"
   viewBox="0 0 663 474"
   preserveAspectRatio="xMidYMid"
   id="svg4"
   sodipodi:docname="Без имени.svg"
   xmlns:inkscape="http://www.inkscape.org/namespaces/inkscape"
   xmlns:sodipodi="http://sodipodi.sourceforge.net/DTD/sodipodi-0.dtd"
   xmlns="http://www.w3.org/2000/svg"
   xmlns:svg="http://www.w3.org/2000/svg">
  <defs
     id="defs4" />
  <sodipodi:namedview
     id="namedview4"
     pagecolor="#ffffff"
     bordercolor="#000000"
     borderopacity="0.25"
     inkscape:showpageshadow="2"
     inkscape:pageopacity="0.0"
     inkscape:pagecheckerboard="0"
     inkscape:deskcolor="#d1d1d1"
     inkscape:document-units="pt"
     inkscape:zoom="0.86933856"
     inkscape:cx="373.84745"
     inkscape:cy="341.0639"
     inkscape:window-width="1920"
     inkscape:window-height="991"
     inkscape:window-x="-9"
     inkscape:window-y="-9"
     inkscape:window-maximized="1"
     inkscape:current-layer="svg4" />
  <metadata
     id="metadata1">
Created by potrace 1.16, written by Peter Selinger 2001-2019
</metadata>
  <g
     transform="matrix(0.1,0,0,-0.1,0,474)"
     fill="#000000"
     stroke="none"
     id="g4">
    <path
       d="m 2725,3844 c -279,-42 -481,-116 -670,-244 -107,-73 -254,-200 -320,-276 -172,-201 -330,-521 -406,-821 -67,-264 -74,-329 -74,-668 0,-252 4,-332 19,-430 43,-279 133,-545 268,-788 27,-48 46,-92 43,-98 -4,-5 -157,-9 -385,-9 H 820 l -30,-28 c -47,-41 -42,-117 10,-150 14,-9 599,-12 2445,-13 2227,0 2428,1 2451,16 48,31 57,94 20,140 -23,29 -27,30 -125,35 l -102,5 -53,126 c -105,253 -227,440 -396,610 -122,123 -208,190 -351,277 -307,187 -629,273 -1016,273 -196,0 -183,-9 -157,93 l 16,64 101,37 c 157,58 299,145 421,256 231,211 307,507 191,744 -30,63 -131,161 -194,189 -32,15 -48,31 -66,65 -36,71 -118,179 -198,259 -141,144 -338,251 -572,313 -65,17 -117,21 -270,24 -104,2 -203,1 -220,-1 z m -636,-514 c 22,-13 54,-43 72,-68 l 32,-45 -61,7 c -179,18 -176,18 -209,-3 -44,-27 -67,-75 -66,-136 0,-69 32,-134 92,-195 27,-27 47,-50 43,-50 -28,-1 -140,50 -173,78 -60,52 -83,103 -84,187 0,59 5,78 30,124 50,91 128,134 227,127 34,-2 73,-13 97,-26 z m 1770,-244 c 137,-38 236,-119 265,-217 20,-65 20,-157 2,-225 -16,-61 -74,-174 -97,-187 -27,-17 -66,1 -118,53 l -49,51 -21,-30 c -27,-37 -159,-127 -200,-136 -17,-4 -31,-11 -31,-17 0,-15 120,-4 155,15 28,14 31,14 63,-14 18,-16 42,-29 52,-29 33,0 23,-15 -47,-70 -258,-198 -786,-313 -1368,-297 -115,3 -220,9 -232,13 -44,12 -23,-13 35,-44 128,-67 246,-98 427,-111 101,-8 360,1 430,15 27,5 26,3 -15,-22 -25,-15 -78,-52 -118,-82 -273,-204 -409,-568 -347,-925 16,-95 60,-223 100,-294 14,-25 24,-47 22,-49 -1,-2 -33,8 -70,21 -212,74 -442,304 -579,580 -117,236 -170,457 -171,715 0,159 14,250 58,380 71,211 182,369 346,495 171,133 329,190 570,204 139,9 157,15 318,111 91,54 202,95 296,110 79,12 256,4 324,-14 z M 3631,1557 c 250,-125 508,-376 623,-606 73,-144 147,-387 132,-428 -8,-19 -110,-18 -130,2 -9,9 -21,35 -27,58 -21,79 -87,235 -135,318 -78,134 -152,225 -331,404 -152,152 -194,204 -225,278 -10,24 -2,22 93,-26 z"
       id="path1" />
    <path
       d="m 3747,2961 c -58,-12 -87,-45 -87,-99 0,-41 5,-50 45,-89 25,-24 70,-59 99,-79 52,-34 55,-35 87,-21 48,20 137,92 160,130 35,58 22,114 -34,144 -36,18 -205,27 -270,14 z"
       id="path2" />
    <path
       d="m 3090,2781 c -163,-38 -316,-122 -452,-250 -83,-78 -138,-152 -138,-186 0,-36 37,-75 71,-75 25,0 47,17 127,101 174,182 331,266 556,298 37,5 74,15 82,22 22,19 18,75 -8,93 -30,21 -140,20 -238,-3 z"
       id="path3" />
    <path
       d="m 3307,2576 c -108,-39 -269,-176 -346,-296 -47,-72 -50,-98 -18,-127 53,-49 85,-37 155,62 67,94 128,151 242,227 75,50 96,69 98,90 6,51 -54,71 -131,44 z"
       id="path4" />
  </g>
  <circle
     style="fill:#ffffff;stroke-width:0.75"
     id="path8"
     cx="291.16965"
     cy="158.31003"
     r="6.4704366" />
</svg>
