<?xml version="1.0" encoding="UTF-8" standalone="no"?>
<svg
   version="1.0"
   width="663pt"
   height="474pt"
   viewBox="0 0 663 474"
   preserveAspectRatio="xMidYMid"
   id="svg4"
   sodipodi:docname="white.svg"
   inkscape:export-filename="..\Desktop\white.png"
   inkscape:export-xdpi="96"
   inkscape:export-ydpi="96"
   xmlns:inkscape="http://www.inkscape.org/namespaces/inkscape"
   xmlns:sodipodi="http://sodipodi.sourceforge.net/DTD/sodipodi-0.dtd"
   xmlns="http://www.w3.org/2000/svg"
   xmlns:svg="http://www.w3.org/2000/svg">
  <defs
     id="defs4" />
  <sodipodi:namedview
     id="namedview4"
     pagecolor="#ffffff"
     bordercolor="#000000"
     borderopacity="0.25"
     inkscape:showpageshadow="2"
     inkscape:pageopacity="0.0"
     inkscape:pagecheckerboard="0"
     inkscape:deskcolor="#d1d1d1"
     inkscape:document-units="pt"
     inkscape:zoom="0.86933856"
     inkscape:cx="373.84745"
     inkscape:cy="341.0639"
     inkscape:window-width="1920"
     inkscape:window-height="991"
     inkscape:window-x="-9"
     inkscape:window-y="-9"
     inkscape:window-maximized="1"
     inkscape:current-layer="svg4" />
  <metadata
     id="metadata1">
Created by potrace 1.16, written by Peter Selinger 2001-2019
</metadata>
  <g
     transform="matrix(0.1,0,0,-0.1,0,474)"
     fill="#000000"
     stroke="none"
     id="g4">
    <path
       d="m 2725,3844 c -279,-42 -481,-116 -670,-244 -107,-73 -254,-200 -320,-276 -172,-201 -330,-521 -406,-821 -67,-264 -74,-329 -74,-668 0,-252 4,-332 19,-430 43,-279 133,-545 268,-788 27,-48 46,-92 43,-98 -4,-5 -157,-9 -385,-9 H 820 l -30,-28 c -47,-41 -42,-117 10,-150 14,-9 599,-12 2445,-13 2227,0 2428,1 2451,16 48,31 57,94 20,140 -23,29 -27,30 -125,35 l -102,5 -53,126 c -105,253 -227,440 -396,610 -122,123 -208,190 -351,277 -307,187 -629,273 -1016,273 -196,0 -183,-9 -157,93 l 16,64 101,37 c 157,58 299,145 421,256 231,211 307,507 191,744 -30,63 -131,161 -194,189 -32,15 -48,31 -66,65 -36,71 -118,179 -198,259 -141,144 -338,251 -572,313 -65,17 -117,21 -270,24 -104,2 -203,1 -220,-1 z m -636,-514 c 22,-13 54,-43 72,-68 l 32,-45 -61,7 c -179,18 -176,18 -209,-3 -44,-27 -67,-75 -66,-136 0,-69 32,-134 92,-195 27,-27 47,-50 43,-50 -28,-1 -140,50 -173,78 -60,52 -83,103 -84,187 0,59 5,78 30,124 50,91 128,134 227,127 34,-2 73,-13 97,-26 z m 1770,-244 c 137,-38 236,-119 265,-217 20,-65 20,-157 2,-225 -16,-61 -74,-174 -97,-187 -27,-17 -66,1 -118,53 l -49,51 -21,-30 c -27,-37 -159,-127 -200,-136 -17,-4 -31,-11 -31,-17 0,-15 120,-4 155,15 28,14 31,14 63,-14 18,-16 42,-29 52,-29 33,0 23,-15 -47,-70 -258,-198 -786,-313 -1368,-297 -115,3 -220,9 -232,13 -44,12 -23,-13 35,-44 128,-67 246,-98 427,-111 101,-8 360,1 430,15 27,5 26,3 -15,-22 -25,-15 -78,-52 -118,-82 -273,-204 -409,-568 -347,-925 16,-95 60,-223 100,-294 14,-25 24,-47 22,-49 -1,-2 -33,8 -70,21 -212,74 -442,304 -579,580 -117,236 -170,457 -171,715 0,159 14,250 58,380 71,211 182,369 346,495 171,133 329,190 570,204 139,9 157,15 318,111 91,54 202,95 296,110 79,12 256,4 324,-14 z M 3631,1557 c 250,-125 508,-376 623,-606 73,-144 147,-387 132,-428 -8,-19 -110,-18 -130,2 -9,9 -21,35 -27,58 -21,79 -87,235 -135,318 -78,134 -152,225 -331,404 -152,152 -194,204 -225,278 -10,24 -2,22 93,-26 z"
       id="path1" />
    <path
       d="m 3747,2961 c -58,-12 -87,-45 -87,-99 0,-41 5,-50 45,-89 25,-24 70,-59 99,-79 52,-34 55,-35 87,-21 48,20 137,92 160,130 35,58 22,114 -34,144 -36,18 -205,27 -270,14 z"
       id="path2" />
    <path
       d="m 3090,2781 c -163,-38 -316,-122 -452,-250 -83,-78 -138,-152 -138,-186 0,-36 37,-75 71,-75 25,0 47,17 127,101 174,182 331,266 556,298 37,5 74,15 82,22 22,19 18,75 -8,93 -30,21 -140,20 -238,-3 z"
       id="path3" />
    <path
       d="m 3307,2576 c -108,-39 -269,-176 -346,-296 -47,-72 -50,-98 -18,-127 53,-49 85,-37 155,62 67,94 128,151 242,227 75,50 96,69 98,90 6,51 -54,71 -131,44 z"
       id="path4" />
  </g>
  <path
     style="fill:#ffffff;stroke-width:0.610039"
     d="m 140.91892,441.39135 c -66.490965,-0.37085 -61.51708,-0.009 -63.765828,-4.6438 -2.046127,-4.21755 -1.39281,-6.98434 2.619398,-11.09311 l 2.53173,-2.59266 h 35.4751 c 36.11733,0 41.13573,-0.18681 41.13573,-1.5312 0,-0.41541 -2.91268,-6.45327 -6.47263,-13.41746 -12.17072,-23.80906 -19.09787,-43.90434 -23.65667,-68.62663 -2.32569,-12.61218 -2.80047,-20.74164 -2.79683,-47.88804 0.005,-34.60054 0.69233,-41.51812 6.38172,-64.196 9.53569,-38.00917 27.28985,-71.94564 48.27797,-92.28169 25.58378,-24.78893 48.94625,-37.07209 83.09424,-43.688013 8.10947,-1.571152 8.42383,-1.584765 29.31221,-1.269247 23.49343,0.35487 24.06247,0.42984 37.58587,4.952077 20.30833,6.791133 33.71432,14.834673 47.32952,28.397553 8.40017,8.3679 14.3728,15.76987 18.64214,23.10351 3.2636,5.60604 5.26253,7.71924 9.37543,9.91138 4.29163,2.28743 12.07843,9.33359 15.60325,14.11919 5.82192,7.90431 8.97482,21.67438 7.584,33.12248 -2.67927,22.0534 -15.47241,40.54327 -39.1599,56.59765 -7.109,4.81818 -19.52269,11.04282 -29.44336,14.76387 -4.00471,1.50208 -7.4571,3.01555 -7.672,3.36326 -0.21489,0.34771 -1.04178,3.39016 -1.83753,6.761 -1.60616,6.80383 -1.40016,7.90227 1.60508,8.55845 0.97068,0.21195 7.41702,0.41784 14.32519,0.45753 43.18367,0.24815 76.00544,9.9683 110.05744,32.59342 15.07223,10.01443 31.06343,25.30247 42.3541,40.49171 9.56897,12.87306 16.95463,26.27348 24.98618,45.33454 l 4.24125,10.06564 8.43703,0.42931 c 10.62356,0.54058 12.59693,1.08813 14.49106,4.02078 2.19425,3.3973 2.46938,5.70385 1.06035,8.88921 -2.33228,5.2725 0.80737,4.91001 -46.435,5.36124 -48.57061,0.46392 -297.91577,0.42124 -385.26624,-0.0659 z m 136.34363,-15.50939 c 0,-0.12651 -1.49997,-3.35209 -3.33327,-7.16796 -13.6612,-28.43475 -14.07081,-58.98837 -1.15992,-86.52161 7.51445,-16.02502 19.47923,-29.02009 37.38281,-40.60186 4.05967,-2.62619 5.65489,-4.44612 3.25517,-3.71372 -6.39706,1.95242 -41.9907,2.4604 -53.53089,0.76398 -12.48531,-1.83535 -21.27573,-4.47492 -30.80695,-9.25063 -5.01781,-2.51424 -9.67045,-5.74018 -7.08083,-4.90956 5.60215,1.79689 51.99694,1.85892 69.44475,0.0928 37.96881,-3.84323 68.81073,-12.68089 87.38532,-25.04 5.76028,-3.83275 11.30095,-8.62211 11.30095,-9.76854 0,-0.43025 -0.8883,-0.95993 -1.97399,-1.17708 -1.0857,-0.21713 -2.9387,-1.1677 -4.11776,-2.11237 -4.03554,-3.23325 -4.55681,-3.34976 -8.42127,-1.88217 -3.97915,1.51114 -14.66013,2.49136 -13.90929,1.27648 0.23789,-0.38493 0.76723,-0.69987 1.1763,-0.69987 3.20177,0 17.25539,-9.21897 21.18027,-13.89395 l 2.05854,-2.45194 4.41808,4.126 c 7.07783,6.60991 10.91717,7.74721 13.96544,4.13688 2.2742,-2.69353 7.35097,-13.3499 8.50083,-17.84364 1.1218,-4.38404 1.26624,-15.0813 0.26772,-19.82626 -2.25321,-10.70715 -13.15595,-20.61767 -26.48052,-24.07061 -9.84324,-2.55079 -30.49667,-2.7555 -39.51014,-0.39161 -7.45771,1.95586 -16.65052,5.81377 -24.25846,10.18042 -15.52838,8.91267 -17.58174,9.61806 -30.9822,10.64332 -21.95183,1.67949 -35.01894,5.65153 -49.47461,15.03889 -22.61723,14.68741 -37.44784,35.49689 -44.53612,62.49064 -2.86674,10.91717 -3.36763,15.47061 -3.3469,30.42556 0.0224,16.20073 1.06012,25.17549 4.47886,38.73745 3.42786,13.59815 8.37595,26.08818 15.39455,38.85909 11.1808,20.34438 29.02732,39.18556 45.72601,48.27451 5.53289,3.01149 16.98752,7.24428 16.98752,6.27732 z m 160.99108,-3.38079 c 2.08608,-1.32072 -1.21121,-16.02492 -6.8857,-30.70662 -7.1065,-18.38675 -15.27553,-30.67003 -30.54338,-45.92626 -12.40835,-12.39891 -24.46167,-21.22724 -38.6735,-28.32601 -8.48587,-4.23866 -9.79268,-4.36321 -8.32606,-0.79353 2.52736,6.15141 7.50618,12.079 26.52807,31.5833 15.20727,15.59292 20.62181,22.2599 27.48852,33.84687 5.14593,8.68331 10.58003,20.79738 13.68707,30.5122 1.88881,5.90578 3.41498,8.98592 4.77916,9.64544 1.62835,0.78723 10.76357,0.91312 11.94582,0.16461 z M 195.1942,184.68919 c -5.45148,-6.21087 -7.92872,-10.72641 -8.77815,-16.00085 -1.31655,-8.17502 1.7231,-14.73847 8.04954,-17.38118 2.09046,-0.87324 3.24672,-0.87575 12.50579,-0.0271 5.6113,0.51432 10.68277,1.0443 11.26994,1.17775 1.60856,0.36558 1.3077,-0.59026 -1.2945,-4.11272 -5.83806,-7.90271 -11.62587,-10.61312 -21.44887,-10.04448 -14.31549,0.82871 -23.86008,13.5574 -21.89587,29.20039 1.22807,9.78042 5.98957,15.1586 18.10246,20.44697 2.60034,1.13527 5.50345,2.0675 6.45137,2.0716 1.66378,0.007 1.56119,-0.17744 -2.96171,-5.3304 z"
     id="path5" />
  <path
     style="fill:#ffffff;stroke-width:0.610039"
     d="m 254.26321,245.56524 c -2.16726,-1.32146 -3.84236,-4.07027 -3.84236,-6.30524 0,-3.52438 9.39175,-14.78366 18.90957,-22.66968 16.58374,-13.74051 36.41596,-21.84943 53.68502,-21.95051 9.0348,-0.0529 11.59074,1.34276 11.59074,6.32904 0,3.07004 -1.6229,4.24978 -7.32047,5.32152 -26.97832,5.07475 -37.57816,10.62103 -57.64864,30.16419 -11.41945,11.11941 -11.75414,11.31775 -15.37386,9.11068 z"
     id="path6" />
  <path
     style="fill:#ffffff;stroke-width:0.610039"
     d="m 297.66859,260.54347 c -2.32287,-1.01178 -5.15508,-4.30874 -5.15508,-6.00101 0,-1.67366 3.69001,-8.34103 6.98409,-12.61933 3.82171,-4.96362 14.60061,-15.10441 20.00869,-18.82422 6.82733,-4.69599 12.20555,-7.05408 16.7548,-7.34617 3.57395,-0.22946 3.8981,-0.13527 5.68537,1.65199 3.28553,3.28553 2.06152,4.99152 -9.17039,12.78147 -9.07916,6.29691 -16.9135,13.63389 -22.58339,21.1497 -4.32724,5.73605 -6.70552,8.22999 -8.94602,9.38107 -1.5834,0.81349 -1.27812,0.82829 -3.57807,-0.1735 z"
     id="path7" />
  <path
     style="fill:#ffffff;stroke-width:0.610039"
     d="m 381.571,204.87453 c -5.4387,-3.62938 -12.63168,-9.85155 -14.05968,-12.16211 -1.06911,-1.72984 -1.27404,-2.80104 -1.05083,-5.49265 0.32684,-3.94131 1.6958,-6.04725 5.0876,-7.82656 2.19082,-1.14928 3.44034,-1.26043 13.99631,-1.24507 13.11139,0.0191 15.54677,0.48686 18.52324,3.55779 3.6968,3.81414 3.24386,8.9946 -1.23089,14.07818 -4.48772,5.09832 -13.62986,11.32399 -16.6288,11.32399 -0.70944,0 -2.79606,-1.0051 -4.63695,-2.23357 z"
     id="path8" />
  <circle
     style="fill:#000000;stroke-width:0.75"
     id="path9"
     cx="286.85602"
     cy="157.4473"
     r="8.1958866" />
</svg>
